PathFileType	4	(X/Y/Z)	Patient4_TMGait_0pt4_02_left_32.trc.trc
DataRate	CameraRate	NumFrames	NumMarkers	Units	OrigDataRate	OrigDataStartFrame	OrigNumFrames
74.866310160428	74.866310160428	5	33	mm	74.866310160428	106	       141
Frame#	Time	Sacral			L.Shoulder			Chest			R.Shoulder			Neck			R.ASIS			L.ASIS			R.Thigh.Superior			R.Thigh.Lateral			R.Thigh.Inferior			R.Patella			L.Thigh.Superior			L.Thigh.Lateral			L.Thigh.Inferior			L.Patella			L.Shank.Superior			L.Shank.Lateral			L.Shank.Inferior			R.Shank.Superior			R.Shank.Lateral			R.Shank.Inferior			R.Heel			R.Midfoot.Superior			R.Midfoot.Lateral			R.Toe			L.Heel			L.Midfoot.Lateral			L.Midfoot.Superior			L.Toe			L.Elbow			L.Wrist			R.Elbow			R.Wrist			
		X1	Y1	Z1	X2	Y2	Z2	X3	Y3	Z3	X4	Y4	Z4	X5	Y5	Z5	X6	Y6	Z6	X7	Y7	Z7	X8	Y8	Z8	X9	Y9	Z9	X10	Y10	Z10	X11	Y11	Z11	X12	Y12	Z12	X13	Y13	Z13	X14	Y14	Z14	X15	Y15	Z15	X16	Y16	Z16	X17	Y17	Z17	X18	Y18	Z18	X19	Y19	Z19	X20	Y20	Z20	X21	Y21	Z21	X22	Y22	Z22	X23	Y23	Z23	X24	Y24	Z24	X25	Y25	Z25	X26	Y26	Z26	X27	Y27	Z27	X28	Y28	Z28	X29	Y29	Z29	X30	Y30	Z30	X31	Y31	Z31	X32	Y32	Z32	X33	Y33	Z33	

106	44.242500000000	841.671642544790	1004.219866435143	529.380300093965	983.296327628690	1442.317246018949	342.642199977246	1105.114836270725	1376.492175442781	491.271640814916	1036.647925466984	1440.831885075174	675.334153972824	979.164591477553	1499.766675803412	502.993148023013	1078.376914151240	948.641629242839	628.026792670633	1044.033626475329	970.251056860132	355.478931045701	1099.411024763815	741.171813180720	600.552254937903	1010.177919896876	636.353073705302	664.432358126321	1080.768972075744	580.343966568662	585.093324523860	1073.208848898902	494.650558521178	593.029578803619	1128.142028517910	787.364849257509	364.252517872711	1073.699748801428	660.270516755038	286.113389951152	1185.337297835365	600.624654026724	328.529354514257	1204.591673768516	521.339912798455	318.029802378377	1160.373872746789	447.152346592124	312.773614002261	1041.306921622707	358.439111320635	271.065676053800	1084.112857540737	231.601803950117	317.267930853690	1043.085437436654	404.831232159753	598.065212441636	966.123032821922	302.172244569553	655.606456341601	1009.927307348193	207.391623572715	592.173093481808	875.814398668691	42.261608367403	556.494879838026	1047.657636374051	98.041946594514	592.522095862155	959.942572064589	36.432787780467	630.675128930979	1167.859898370007	46.589177675132	615.715346083994	939.333089286193	95.878710999351	364.765688891138	1000.578788704076	80.745330423095	276.733281062739	1095.188183918360	129.706684653998	291.192738997201	1206.849573282392	60.375843837871	247.454237868194	885.658371241460	1101.032914116860	239.833994897855	908.664961357711	839.588897841300	240.200857695848	1129.336512329335	1114.892717259224	811.152638648136	1380.943579783242	1078.734402739287	782.178115985433	
107	44.255857142857	840.842207705610	1004.458168771286	529.887614299222	982.432033381677	1442.242754546256	343.336565242433	1104.978288075804	1376.060383860341	491.186355236627	1037.791177045718	1440.496729684467	675.679555941146	979.440064749290	1499.570074007843	503.765514482434	1077.696644666023	948.116381261155	627.993796560809	1042.801857596232	970.169408498193	355.512524897024	1097.336595556299	740.498817961815	600.508130804596	1007.424424687651	636.140660253147	664.422805838238	1077.332500365706	579.733317792855	585.029394783480	1069.148936134143	494.283706372725	592.848513862478	1125.714545951250	786.384508317152	365.032008734356	1071.383339471427	659.652909124509	286.390574061009	1181.766766875785	599.354555460188	331.056386869014	1202.077899562809	522.106567135735	320.259276903767	1161.510984144461	448.148397571519	313.530928587906	1048.562544541562	352.784017583256	269.909160210433	1099.022435589473	228.107385283894	315.123441467681	1038.778823027061	404.518879325999	597.905125002948	961.649909029055	302.107346221673	655.592469157550	1005.003151250714	207.194018510510	592.039019622592	870.445669714539	42.267786004820	556.497767849116	1042.339785844193	97.935000804513	592.466448157013	954.581909740385	36.442629021442	630.680410253047	1162.505081554390	46.406403385434	615.724031402048	962.956676968249	83.012498105597	360.439337594529	1025.685441185457	72.435590596203	272.687005813726	1117.078340129850	126.917013494842	288.162871516514	1233.107159814243	64.795775477141	244.624046382299	876.643974747131	1103.046590833921	243.559339558989	891.292438132980	841.075782854481	246.826114836728	1136.513415813303	1116.287022836410	809.852096009753	1389.031488433845	1093.025126693904	778.448440979462	
108	44.269214285714	840.007631908564	1004.654175659006	530.279578051737	981.693284292891	1442.060413242809	343.779017803383	1104.914183077378	1375.546488738938	490.900320238028	1038.953261852285	1440.131367192585	675.779637323310	979.757398108919	1499.318787126690	504.214771234201	1077.053138068567	947.517243570757	627.779540333327	1041.498460676545	969.972823581609	355.394213257467	1095.421771320400	739.804174226445	600.303592847253	1004.920820570352	635.888345316830	664.326830547972	1074.120877296663	579.098064720554	584.837039894799	1065.340987367562	493.859170090878	592.560212236906	1122.973568919948	785.020043780698	365.776016166865	1068.774003977618	658.822925917134	286.481081767301	1177.732204944564	597.710928401711	333.690534343453	1199.083912638527	522.548230217963	322.573968114650	1162.114704643099	449.051996572869	314.395412805697	1055.562707884547	347.460161984337	268.800604036679	1113.299744194997	225.352051498057	313.334572729757	1034.679976197950	404.167854079861	597.667315489686	957.358758735148	302.039248973097	655.553643654623	1000.170416621456	206.970703549428	591.869373429398	865.076356556837	42.283981002313	556.510525438679	1037.031083567908	97.815771978626	592.404846508793	949.226386482417	36.452737664520	630.690392262457	1157.162008836651	46.191711938581	615.724719685321	986.107538874999	71.694384224478	356.436728380595	1050.273986308772	65.390983236626	269.152498123493	1138.246629497849	125.078229175548	285.705974615644	1258.239716255561	69.983579489901	242.825480570257	868.533280128004	1104.941463509930	247.103020596623	875.043467270888	842.743380788104	253.077155388418	1143.235261894591	1117.634450099914	808.252060979275	1395.984864276956	1107.105453748491	774.414244165769	
109	44.282571428571	839.178142882593	1004.821180309261	530.578621192782	981.076259686184	1441.799800383581	343.961723330330	1104.917495777912	1374.968551767164	490.403215335891	1040.133384004392	1439.746991341030	675.627326489073	980.114374679224	1499.030877052980	504.346153839690	1076.447816056864	946.874497328020	627.378188396776	1040.104937680716	969.683495640516	355.116709021224	1093.642736962355	739.097624493566	599.923214159734	1002.637090843835	635.609593472496	664.137865848705	1071.093615949589	578.447417116096	584.501757591423	1061.749332133855	493.388916914402	592.155563153938	1119.995462196104	783.432725901107	366.437926887994	1065.995534528852	657.883280217091	286.377240343156	1173.483430261980	595.914455876210	336.229919708098	1195.852245287792	522.801002411542	324.824265217862	1162.340514752563	449.919829905685	315.314527090353	1062.217863101534	342.668785421627	267.828493403096	1126.662769160673	223.423308903784	312.007969331516	1030.759097912365	403.790974538204	597.346899044547	953.225913192287	301.976487189082	655.488135569727	995.415811535857	206.730967319601	591.666401276455	859.707825998066	42.311180968115	556.536462564877	1031.727276154441	97.690572213411	592.342630414519	943.874889355219	36.463860650232	630.707536983841	1151.828872694754	45.952036600403	615.723714254907	1008.192740751339	62.206630623152	353.021146608809	1073.721816789462	59.749764662380	266.359651139935	1158.200720406892	124.212892386708	283.966062193327	1281.685237477883	75.754280886210	242.161053844179	861.365261985173	1106.675231220243	250.405550096326	860.030113192914	844.517150731324	258.862403566876	1149.530311137112	1118.941954767335	806.396336537870	1401.860758488169	1120.840376928310	770.145620617082	
110	44.295928571429	838.364428495708	1004.970038745593	530.799857485391	980.570163047806	1441.488583429424	343.883602878302	1104.979349548551	1374.344386134193	489.688377939504	1041.328538415060	1439.355025576437	675.219127214936	980.506451184958	1498.721398743094	504.173074885776	1075.879709723423	946.214230967963	626.784394403075	1038.614012536155	969.327379193582	354.669628684637	1091.971642394481	738.385386554761	599.353220521937	1000.537648573225	635.315177086630	663.844981365798	1068.208169995902	577.788910239438	584.007063252476	1058.338857796637	492.884077397362	591.622637156228	1116.884777714291	781.793638618377	366.960500997310	1063.176876027492	656.916554550581	286.109033024377	1169.283759589218	594.168005520662	338.486595553823	1192.623702054569	522.982027906214	326.884433954448	1162.339063999665	450.778075735583	316.248490327093	1068.406685663608	338.547087648126	267.089784898822	1138.828921100834	222.305504478469	311.217928358139	1026.984761974823	403.397779145429	596.934520004118	949.230315352518	301.924772865602	655.391091750133	990.726960094093	206.482246550033	591.427409196555	854.341167438101	42.350348717945	556.576324295167	1026.424660609852	97.564604839960	592.282714943513	938.526096196653	36.477234061848	630.732759909832	1146.503744091310	45.692158001411	615.726410421333	1028.602440131741	54.664666226275	350.414103450147	1095.384632595189	55.510718833563	264.476153119791	1176.449302727157	124.221371831193	283.025824714854	1302.906162984836	81.808802892767	242.617446688606	855.145338767246	1108.215170109842	253.398647803859	846.357696980375	846.322619949325	264.082737922814	1155.423918452342	1120.219726675934	804.330092807557	1406.735022412287	1134.095083838868	765.711801806944	
